<?xml version="1.0" encoding="UTF-8" standalone="no"?>
<!-- Created with Inkscape (http://www.inkscape.org/) -->

<svg
   width="215.9108mm"
   height="209.64001mm"
   viewBox="0 0 215.9108 209.64001"
   version="1.1"
   id="svg1"
   xml:space="preserve"
   inkscape:version="1.4 (e7c3feb1, 2024-10-09)"
   sodipodi:docname="busNeighbor.svg"
   inkscape:export-filename="busNeighbor.png"
   inkscape:export-xdpi="124.07"
   inkscape:export-ydpi="124.07"
   xmlns:inkscape="http://www.inkscape.org/namespaces/inkscape"
   xmlns:sodipodi="http://sodipodi.sourceforge.net/DTD/sodipodi-0.dtd"
   xmlns="http://www.w3.org/2000/svg"
   xmlns:svg="http://www.w3.org/2000/svg"><sodipodi:namedview
     id="namedview1"
     pagecolor="#ffffff"
     bordercolor="#cccccc"
     borderopacity="1"
     inkscape:showpageshadow="0"
     inkscape:pageopacity="1"
     inkscape:pagecheckerboard="0"
     inkscape:deskcolor="#d1d1d1"
     inkscape:document-units="mm"
     inkscape:clip-to-page="false"
     inkscape:zoom="0.60965533"
     inkscape:cx="1024.3493"
     inkscape:cy="510.12431"
     inkscape:window-width="2560"
     inkscape:window-height="1387"
     inkscape:window-x="3840"
     inkscape:window-y="160"
     inkscape:window-maximized="0"
     inkscape:current-layer="layer1"
     showgrid="false" /><defs
     id="defs1" /><g
     inkscape:label="Layer 1"
     inkscape:groupmode="layer"
     id="layer1"
     transform="translate(2.3275933,-42.476858)"><path
       style="fill:#115aac;fill-opacity:0.37841725;stroke:#000000;stroke-width:9.8;stroke-dasharray:none;stroke-opacity:1"
       d="M 38.42722,246.72276 C 32.2439,246.1278 25.79028,243.74495 20.03635,239.93234 11.4744,234.2591 5.5394997,225.46378 3.1887897,214.96483 l -0.61494,-2.74651 v -64.9552 c 0,-61.434138 0.0258,-65.089338 0.47582,-67.429468 3.17689,-16.51972 15.9747603,-28.93222 32.9908203,-31.9974 2.33319,-0.42029 7.42648,-0.45334 69.85313,-0.45334 63.11837,0 67.49041,0.0291 69.79421,0.46479 8.16225,1.54357 15.16556,5.28866 21.39478,11.44107 6.00522,5.93117 9.5773,12.83956 11.14829,21.56078 0.42001,2.33167 0.45244,7.16558 0.44116,65.752108 -0.009,49.10169 -0.0861,63.76765 -0.34305,65.61666 -1.29015,9.28506 -5.5032,17.51211 -12.10015,23.62862 -7.09909,6.58208 -14.61651,9.97417 -24.16349,10.90329 -3.14091,0.30568 -130.44772,0.27951 -133.63815,-0.0275 z"
       id="path34" /><path
       style="fill:#000000"
       d="m 51.941322,238.50566 c -3.28636,-0.74423 -5.50672,-2.48998 -6.91244,-5.43486 -0.66753,-1.39843 -0.69797,-1.66425 -0.78028,-6.81302 l -0.0857,-5.35781 h -2.70303 c -3.18806,0 -5.14018,-0.43969 -7.75005,-1.74559 -4.85599,-2.4298 -8.55762,-7.4443 -9.4687,-12.82704 -0.56958,-3.36509 -0.32942,-127.714428 0.25213,-130.544678 0.21005,-1.02231 0.93712,-2.98323 1.6157,-4.35762 1.01508,-2.05595 1.63758,-2.90477 3.5118,-4.78865 3.54064,-3.55887 7.42562,-5.52739 13.08638,-6.63087 2.52273,-0.49177 4.49579,-0.50793 61.554728,-0.5043 63.99044,0.004 60.59388,-0.0704 64.99068,1.42504 2.74775,0.93457 4.59825,1.87923 6.49703,3.31664 3.60245,2.72712 5.96419,6.14131 7.42886,10.73936 l 0.58996,1.85208 0.0699,64.289528 c 0.0691,63.48958 0.0634,64.3155 -0.45814,66.37771 -0.87737,3.46954 -2.20432,5.80321 -4.76995,8.38879 -1.72935,1.74279 -2.70744,2.48887 -4.23334,3.22918 -2.96762,1.43977 -4.61813,1.78042 -8.62648,1.78042 h -3.48822 l -0.1141,5.09323 c -0.0992,4.42966 -0.18893,5.28446 -0.68852,6.56109 -1.12687,2.87958 -3.02667,4.70569 -5.96083,5.7296 -1.12455,0.39242 -2.21723,0.47436 -6.25726,0.46919 l -4.89479,-0.006 -1.75244,-0.82406 c -2.06328,-0.97024 -3.64438,-2.32332 -4.57961,-3.91916 -1.16616,-1.98991 -1.47316,-3.79487 -1.47316,-8.66132 v -4.44232 H 103.07169 69.601902 v 5.01715 c 0,4.39607 -0.0666,5.19509 -0.53776,6.45447 -1.0554,2.8208 -2.87527,4.63576 -5.77392,5.75834 -1.25653,0.48662 -2.14429,0.59203 -5.59456,0.66427 -2.86218,0.0599 -4.6005,-0.0272 -5.75439,-0.28854 z m 3.68842,-33.73931 c 3.22898,-0.99733 5.69938,-3.26976 6.82849,-6.28127 0.84694,-2.25892 0.69033,-5.69474 -0.35679,-7.82719 -0.96163,-1.95837 -2.89895,-3.8957 -4.8562,-4.85621 -1.38993,-0.6821 -1.79467,-0.75275 -4.31203,-0.75275 -2.53191,0 -2.91737,0.0683 -4.34916,0.77032 -2.93078,1.43704 -4.90524,4.013 -5.5888,7.29139 -0.68396,3.28031 0.19919,6.38279 2.51352,8.82985 1.37978,1.45892 3.04286,2.44466 5.04319,2.98922 1.73786,0.4731 3.16589,0.42716 5.07778,-0.16336 z m 71.277468,-0.35145 c 1.05946,-1.23181 0.7656,-2.74113 -0.67913,-3.48824 -1.14115,-0.5901 -43.556106,-0.60454 -44.695746,-0.0152 -1.04578,0.5408 -1.51229,1.75289 -1.07809,2.80114 0.69744,1.68379 -0.72387,1.59265 23.631646,1.51521 l 22.18283,-0.0705 z m 30.66405,0.46787 c 3.78734,-0.98648 6.63167,-3.96295 7.42558,-7.77057 1.73828,-8.3368 -7.0367,-15.05775 -14.47996,-11.09053 -1.91299,1.01961 -3.74218,2.94889 -4.66729,4.92269 -0.62095,1.32481 -0.7091,1.84183 -0.7091,4.15873 0,2.31886 0.0879,2.83338 0.71124,4.16343 1.2416,2.64921 4.20943,5.07179 7.02674,5.73578 1.53566,0.36193 2.98619,0.32498 4.69279,-0.11953 z m -30.66405,-9.72829 c 0.88303,-1.02668 0.83459,-2.14495 -0.13491,-3.11445 l -0.7734,-0.7734 h -21.86161 c -23.188976,0 -23.059076,-0.007 -23.523056,1.20248 -0.26744,0.69694 -0.17202,2.0732 0.17478,2.5209 0.8004,1.03324 0.71874,1.02987 23.430176,0.96744 l 22.04953,-0.0606 z m 48.46273,-64.94045 -0.067,-42.531768 -3.77032,0.004 c -2.07367,0.002 -34.19078,0.0321 -71.37135,0.0661 l -67.601028,0.0619 v 42.465628 42.46562 h 71.438298 71.4383 z m -72.82897,28.4423 c -0.45541,-0.39173 -0.74065,-0.958 -0.83297,-1.65365 -0.11904,-0.89701 -0.0361,-1.15548 0.54553,-1.69935 0.46015,-0.43031 0.68592,-0.91862 0.68592,-1.48358 v -0.84215 l -4.696346,-0.18626 c -8.05973,-0.31966 -12.26399,-0.64066 -12.6564,-0.96633 -0.683,-0.56684 -0.39077,-1.40901 1.50834,-4.34691 3.94931,-6.10955 4.25373,-7.34131 4.45186,-18.01319 l 0.14776,-7.95902 0.76284,-0.99921 c 0.87128,-1.14126 3.21243,-2.73678 5.03969,-3.43461 0.68651,-0.26218 1.19228,-0.61035 1.12897,-0.77718 -0.0631,-0.16621 -0.43191,-1.34401 -0.81962,-2.61732 -0.38771,-1.2733 -0.83947,-2.3151 -1.00391,-2.3151 -0.66705,0 -2.66425,1.42389 -3.37669,2.40738 -0.43705,0.60334 -1.01025,1.99657 -1.34903,3.27898 l -0.58908,2.2299 -1.08721,0.15772 c -0.59796,0.0868 -2.36684,0.1213 -3.93084,0.0768 l -2.84363,-0.081 -0.0668,-10.05417 -0.0668,-10.054158 0.96195,-0.0803 c 0.82884,-0.0692 0.98364,-0.18879 1.11874,-0.86427 0.20893,-1.04466 1.29338,-1.49484 2.18836,-0.90843 0.34416,0.2255 0.62574,0.64538 0.62574,0.93307 0,0.46513 0.18316,0.52318 1.65365,0.52407 0.9095,5.6e-4 2.72521,0.17707 4.03489,0.39226 3.22383,0.52968 3.55354,0.5198 3.39103,-0.10163 -0.0722,-0.27617 -0.002,-0.74435 0.15678,-1.04042 0.69831,-1.3048 2.669906,-0.74736 2.669906,0.75488 v 0.78765 h 3.96875 3.96874 v -0.66145 c 0,-0.69997 0.82803,-1.7198 1.39634,-1.7198 0.80541,0 1.51408,0.82541 1.51408,1.76348 0,0.87551 0.0462,0.928138 0.67562,0.77016 1.36063,-0.3415 5.84077,-0.94306 7.03476,-0.94458 1.09311,-0.001 1.24658,-0.0753 1.39636,-0.67201 0.3949,-1.57339 2.79951,-1.45691 2.79951,0.13562 0,0.728 0.078,0.79942 0.87313,0.79942 0.48021,0 1.016,0.14287 1.19062,0.3175 0.23509,0.23509 0.3175,2.770368 0.3175,9.767938 0,5.19775 -0.0723,9.63878 -0.1606,9.86896 -0.13606,0.35458 -0.73743,0.41852 -3.93635,0.41852 -2.70101,0 -3.85218,-0.0941 -4.04426,-0.33073 -0.14768,-0.1819 -0.46432,-1.1017 -0.70366,-2.044 -0.53429,-2.1036 -1.47479,-3.75703 -2.60426,-4.57834 -1.19462,-0.8687 -2.25379,-1.28814 -2.45022,-0.9703 -0.12995,0.21026 -1.71107,4.7329 -1.71107,4.89434 0,0.0257 0.56555,0.25702 1.25678,0.51406 2.33434,0.86805 3.99713,2.05674 5.18355,3.70559 0.54575,0.75848 0.57832,1.15238 0.73275,8.86354 0.20952,10.46191 0.36233,11.09249 4.24892,17.53394 2.40724,3.98964 2.48725,4.4914 0.78778,4.94008 -0.53074,0.14013 -4.44756,0.40037 -8.70405,0.57831 l -7.73906,0.32355 v 0.74747 c 0,0.41112 0.2351,0.98258 0.52244,1.26992 0.76934,0.76934 0.90824,1.68405 0.41391,2.72577 -0.73696,1.55302 -2.71296,2.009 -3.98066,0.91857 z m 4.88586,-7.46137 c 0.44663,-0.53817 0.20458,-1.1159 -1.63891,-3.91181 -0.8888,-1.34799 -1.82406,-2.99214 -2.07836,-3.65368 -0.50154,-1.30474 -1.03469,-4.63261 -1.03469,-6.45842 0,-0.97835 -0.0861,-1.1571 -0.6053,-1.25635 -1.07292,-0.2051 -1.24706,0.019 -1.24155,1.59742 0.008,2.3054 0.46853,4.98609 1.14351,6.65718 0.72296,1.78989 4.38527,7.40984 4.8287,7.40984 0.16927,0 0.45124,-0.17288 0.6266,-0.38418 z m 6.32172,-22.53997 c 1.57456,-0.16458 1.62631,-0.19414 1.62631,-0.92895 v -0.75896 l -11.04278,0.0691 c -10.411816,0.0651 -11.048026,0.0964 -11.134866,0.54753 -0.24291,1.26201 -0.40234,1.24131 9.562826,1.24131 5.14921,0 10.09404,-0.0765 10.98851,-0.16998 z m 1.36173,-4.227 v -0.95739 l -10.84723,0.0975 -10.847226,0.0975 -6.8e-4,0.85989 -6.9e-4,0.8599 h 10.847916 10.84791 z m -6.91322,-11.30852 c 0.32645,-1.28922 0.55695,-2.38005 0.51223,-2.42406 -0.17835,-0.17552 -2.85509,-0.572 -2.98497,-0.44212 -0.18937,0.18936 -0.16988,4.27451 0.0238,4.99692 0.17057,0.63609 1.12747,0.93564 1.57385,0.49267 0.15483,-0.15365 0.54861,-1.33419 0.87505,-2.62341 z m -5.47879,0.6904 c -0.009,-1.05503 -0.0218,-2.29076 -0.0295,-2.74607 l -0.0139,-0.82784 -1.38427,0.18363 c -0.76135,0.101 -1.428506,0.22788 -1.482586,0.28196 -0.0541,0.0541 0.283236,1.24369 0.749606,2.64357 0.79254,2.3789 0.89135,2.53994 1.51208,2.46411 0.64226,-0.0785 0.66361,-0.1443 0.64857,-1.99936 z m 34.22014,-32.712378 c 4.74503,-2.24703 5.63757,-8.62797 1.7018,-12.16657 -2.41075,-2.16748 -0.0804,-2.03827 -35.30865,-1.95762 l -31.216058,0.0715 -1.23199,0.56947 c -2.53574,1.17211 -4.45655,4.11972 -4.45655,6.83886 0,1.77653 0.89792,3.85605 2.23983,5.18723 2.24048,2.22259 -0.54656,2.05855 35.198698,2.07184 l 31.75,0.0118 z m -88.428478,-2.64155 c 2.61508,-1.11427 3.20157,-4.29272 1.14062,-6.18145 -0.8075,-0.74002 -1.13707,-0.8641 -2.29501,-0.8641 -1.53934,0 -2.65397,0.63011 -3.28987,1.8598 -0.89393,1.72868 -0.20252,4.15757 1.42894,5.01976 1.15051,0.60802 1.88327,0.64835 3.01532,0.16599 z m 113.429658,-0.0642 c 1.44513,-0.57823 2.20918,-1.70729 2.23245,-3.29899 0.0311,-2.12933 -1.54854,-3.72647 -3.68572,-3.72647 -2.09551,0 -3.61597,1.49873 -3.61597,3.56431 0,1.50167 0.61584,2.59635 1.86978,3.32358 1.15342,0.66894 1.80176,0.69682 3.19946,0.13757 z"
       id="path1" /></g></svg>
