<?xml version="1.0" encoding="UTF-8" standalone="no"?>
<!-- Created with Inkscape (http://www.inkscape.org/) -->

<svg
   width="800"
   height="800"
   viewBox="0 0 211.66666 211.66667"
   version="1.1"
   id="svg1"
   sodipodi:docname="Smiley.svg"
   inkscape:version="1.4 (e7c3feb1, 2024-10-09)"
   xmlns:inkscape="http://www.inkscape.org/namespaces/inkscape"
   xmlns:sodipodi="http://sodipodi.sourceforge.net/DTD/sodipodi-0.dtd"
   xmlns="http://www.w3.org/2000/svg"
   xmlns:svg="http://www.w3.org/2000/svg">
  <sodipodi:namedview
     id="namedview1"
     pagecolor="#ffffff"
     bordercolor="#cccccc"
     borderopacity="1"
     inkscape:showpageshadow="0"
     inkscape:pageopacity="1"
     inkscape:pagecheckerboard="0"
     inkscape:deskcolor="#d1d1d1"
     inkscape:zoom="0.16742685"
     inkscape:cx="2613.0816"
     inkscape:cy="-2138.2473"
     inkscape:window-width="3840"
     inkscape:window-height="2107"
     inkscape:window-x="3840"
     inkscape:window-y="244"
     inkscape:window-maximized="1"
     inkscape:current-layer="svg1" />
  <defs
     id="defs1">
    <inkscape:perspective
       sodipodi:type="inkscape:persp3d"
       inkscape:vp_x="0 : 105.83334 : 1"
       inkscape:vp_y="0 : 1000 : 0"
       inkscape:vp_z="211.66666 : 105.83334 : 1"
       inkscape:persp3d-origin="105.83333 : 70.555557 : 1"
       id="perspective1" />
  </defs>
  <ellipse
     style="fill:#f7df00;fill-opacity:1;stroke:#000000;stroke-width:12.7944;stroke-opacity:1"
     id="path23"
     cx="105.72842"
     cy="103.84043"
     rx="94.771622"
     ry="95.820526" />
  <ellipse
     style="fill:#f7df00;fill-opacity:1;stroke:#000000;stroke-width:8.48506;stroke-opacity:1"
     id="path24"
     cx="79.403915"
     cy="79.414711"
     rx="13.171889"
     ry="15.119324" />
  <path
     style="fill:#000000;fill-opacity:1;stroke:#000000;stroke-width:11.1125;stroke-opacity:1"
     id="path27"
     d="m 47.980007,120.90297 c 4.982416,8.32792 10.037394,16.61059 15.170745,24.84651 3.73906,6.46525 8.488069,11.97536 14.452428,16.43214 5.171455,3.69793 10.893853,6.59079 16.690588,9.17355 3.791064,1.81498 7.738892,3.31244 11.730842,4.62547 3.48225,1.29784 6.96298,1.75057 10.63648,1.42788 3.9459,-0.0767 7.42611,-1.42014 10.90858,-3.14366 4.43626,-2.26799 8.35778,-5.26817 11.98861,-8.64933 4.42598,-4.28592 8.66878,-8.74489 12.74194,-13.36546 3.05885,-3.55943 6.49242,-6.77922 9.40005,-10.46971 1.60476,-2.36448 3.65725,-4.41832 5.20062,-6.81996 0.97635,-1.36868 0.69804,-2.6037 0.21259,-4.0687 -0.44107,-1.46533 -0.53055,-3.00406 -0.61465,-4.52322 -0.0322,-0.68068 -0.0388,-1.36209 -0.0467,-2.04335 0,0 -3.5569,-1.80806 -3.5569,-1.80806 v 0 c 0.005,0.68647 0.0116,1.37295 0.0382,2.05902 0.0827,1.54922 0.16567,3.11466 0.56638,4.62056 0.474,1.36979 0.90503,2.44307 -0.0414,3.75428 -1.53599,2.39053 -3.5715,4.44134 -5.17118,6.7925 -2.90833,3.67858 -6.31954,6.90751 -9.3713,10.46184 -4.06497,4.61167 -8.30765,9.05454 -12.73,13.32661 -3.611,3.34956 -7.51727,6.31534 -11.93003,8.54919 -3.45972,1.68642 -6.92671,2.94455 -10.82948,3.01728 -3.63915,0.27444 -7.0967,-0.28269 -10.5355,-1.55234 -3.979404,-1.34388 -7.921723,-2.83519 -11.708188,-4.6583 -4.717425,-2.13443 -7.773477,-3.51221 -9.901089,-5.24613 C 75.27931,159.24859 70.486192,153.7997 66.749048,147.3369 61.616124,139.11036 56.551006,130.84349 51.603494,122.50408 Z" />
  <path
     style="fill:#000000;fill-opacity:1;stroke:#000000;stroke-width:11.1125;stroke-opacity:1"
     id="path28"
     d="m 102.01559,106.54485 c -2.629103,4.52003 -5.272749,9.03338 -8.045487,13.46756 -1.333426,1.85261 -2.459307,3.84876 -3.760245,5.72003 -0.544126,0.855 -1.412401,2.09192 -0.805669,3.11277 1.962182,1.80089 4.38618,2.97875 7.001362,3.22114 1.898306,0.0947 3.800549,0.0557 5.700409,0.0435 2.32464,-0.0351 4.62371,-0.11866 6.91627,0.30324 1.41123,0.30636 2.82989,0.54709 4.26869,0.66897 0.74538,0.0361 0.38245,0.021 1.08876,0.0461 0,0 -3.21817,-2.3581 -3.21817,-2.3581 v 0 c -0.69885,-0.0319 -0.3401,-0.0117 -1.0762,-0.0618 -1.42864,-0.13961 -2.83481,-0.41169 -4.24238,-0.68873 -2.30718,-0.3686 -4.62574,-0.26085 -6.955762,-0.24551 -1.892636,0.009 -3.79008,0.0553 -5.67902,-0.0857 -0.60181,-0.0795 -0.847457,-0.0888 -1.42676,-0.25389 -0.226999,-0.0647 -0.862494,-0.36642 -0.669586,-0.2304 4.709784,3.3209 3.068354,1.83564 1.97907,1.17856 -0.954035,-0.56403 0.175802,-2.00374 0.549836,-2.63173 1.296913,-1.88186 2.435815,-3.87578 3.755302,-5.74524 2.75844,-4.44876 5.37839,-8.98158 8.04932,-13.48264 z" />
  <circle
     style="fill:#000000;fill-opacity:1;stroke:#000000;stroke-width:11.1125;stroke-opacity:1"
     id="path30"
     cx="78.369362"
     cy="79.800766"
     r="2.5049567" />
  <ellipse
     style="fill:#f7df00;fill-opacity:1;stroke:#000000;stroke-width:8.48506;stroke-opacity:1"
     id="ellipse31"
     cx="118.56226"
     cy="79.414711"
     rx="13.171889"
     ry="15.119324" />
  <circle
     style="fill:#000000;fill-opacity:1;stroke:#000000;stroke-width:11.1125;stroke-opacity:1"
     id="circle31"
     cx="117.52768"
     cy="79.800766"
     r="2.5049567" />
</svg>
